<?xml version="1.0" encoding="utf-8"?>
<!-- Generator: Adobe Illustrator 21.0.0, SVG Export Plug-In . SVG Version: 6.00 Build 0)  -->
<svg version="1.1" id="图层_1" xmlns="http://www.w3.org/2000/svg" xmlns:xlink="http://www.w3.org/1999/xlink" x="0px" y="0px"
	 viewBox="0 0 257 68" style="enable-background:new 0 0 257 68;" xml:space="preserve">
<style type="text/css">
	.st0{fill:#C1272D;}
</style>
<g>
	<path class="st0" d="M43.5,29c0,0,29.7,15.8-1.5,18.3s-31.4,0.8-31.4,0.8s53-1.9,31.6-12.6C35.6,32.2,43.5,29,43.5,29z"/>
</g>
<g>
	<path class="st0" d="M41.7,35.2c0,0-30.1-15.1,1-18.4s31.4-1.6,31.4-1.6S20,17.9,42.8,28.6C49.6,31.8,41.7,35.2,41.7,35.2z"/>
</g>
<path d="M69,47h-1.9l0-13.3h-6.3l0-1.3h14.6l0,1.3H69L69,47z"/>
<path d="M78.3,46.9h-2.2l8.9-14.6h1.9l7.3,14.6h-2L90.2,43h-9.7L78.3,46.9z M81.3,41.7h8.3l-3.8-7.7L81.3,41.7z"/>
<path d="M102,46.8h-1.9l0-14.6h5.1c0.8,0,1.6,0.1,2.4,0.2c0.7,0.1,1.4,0.3,2,0.6c0.6,0.3,1.1,0.7,1.5,1.1c0.4,0.4,0.7,1,0.8,1.5
	c0.2,0.7,0.1,1.3,0,1.7c-0.2,0.5-0.5,0.9-0.9,1.2c-0.4,0.3-1,0.6-1.6,0.8c-0.6,0.2-1.3,0.3-2.1,0.4l5.8,6.9h-2.2l-5.5-6.8H102
	L102,46.8z M102,38.7h3.4c0.6,0,1.3,0,1.9-0.1c0.6-0.1,1.1-0.2,1.6-0.4c0.5-0.2,0.8-0.5,1-0.9c0.2-0.4,0.3-0.9,0.1-1.5
	c-0.2-0.8-0.7-1.4-1.5-1.8c-0.8-0.4-1.9-0.6-3.2-0.6H102L102,38.7z"/>
<path d="M121.3,46c0.1,0.3,0,0.6-0.2,0.8c-0.2,0.2-0.5,0.3-1,0.3c-0.4,0-0.7-0.1-1.1-0.3c-0.3-0.2-0.5-0.5-0.6-0.8
	c-0.1-0.3,0-0.6,0.3-0.8c0.2-0.2,0.6-0.3,1-0.3c0.4,0,0.7,0.1,1.1,0.3C121.1,45.4,121.2,45.6,121.3,46z"/>
<path d="M135.9,34.2c-0.4-0.4-1-0.7-1.7-1c-0.7-0.3-1.5-0.4-2.3-0.4c-0.6,0-1.1,0.1-1.6,0.2c-0.5,0.1-1,0.3-1.4,0.5
	c-0.4,0.2-0.7,0.5-0.9,0.9c-0.2,0.4-0.2,0.8-0.1,1.3c0.1,0.4,0.3,0.7,0.5,1c0.2,0.3,0.5,0.5,0.9,0.7c0.4,0.2,0.8,0.4,1.2,0.5
	c0.5,0.2,0.9,0.3,1.5,0.4c0.6,0.2,1.2,0.3,1.8,0.6c0.6,0.2,1.2,0.5,1.7,0.8c0.5,0.3,1,0.7,1.4,1.1c0.4,0.4,0.6,0.9,0.8,1.4
	c0.1,0.5,0.1,1,0,1.6c-0.1,0.5-0.4,1-0.8,1.5c-0.4,0.5-1,0.8-1.9,1.1c-0.8,0.3-1.9,0.4-3.1,0.4c-1.2,0-2.3-0.2-3.5-0.5
	c-1.2-0.4-2.1-0.9-2.8-1.6l1.5-0.8c0.5,0.5,1.1,0.9,1.9,1.2c0.8,0.3,1.7,0.5,2.7,0.5c0.6,0,1.2-0.1,1.8-0.2c0.5-0.1,1-0.3,1.4-0.6
	c0.4-0.3,0.6-0.6,0.8-1c0.2-0.4,0.2-0.8,0.1-1.3c-0.1-0.4-0.3-0.8-0.6-1.1c-0.3-0.3-0.6-0.6-1-0.8c-0.4-0.2-0.9-0.4-1.4-0.6
	c-0.5-0.2-1.1-0.3-1.6-0.5c-0.6-0.2-1.1-0.3-1.7-0.5c-0.6-0.2-1.1-0.5-1.5-0.7c-0.5-0.3-0.9-0.6-1.2-1c-0.3-0.4-0.6-0.8-0.7-1.4
	c-0.1-0.6-0.1-1.2,0.1-1.7c0.2-0.5,0.5-1,1-1.4c0.5-0.4,1.1-0.7,1.9-0.9c0.8-0.2,1.7-0.3,2.8-0.3c1.3,0,2.4,0.2,3.4,0.5
	c1,0.3,1.7,0.7,2.3,1.2L135.9,34.2z"/>
<path d="M150.6,47h-1.9l0-13.3h-6.3l0-1.3H157l0,1.3h-6.4L150.6,47z"/>
<g>
	<path class="st0" d="M169.7,46.7c-1.2,0-2.4-0.1-3.4-0.4c-1.1-0.3-2.1-0.7-2.9-1.3c-0.9-0.5-1.6-1.2-2.2-1.9
		c-0.6-0.8-1-1.6-1.2-2.5c-0.3-1.2-0.3-2.4,0-3.5c0.3-1.1,0.9-2,1.7-2.8c0.8-0.8,1.8-1.4,3-1.9c1.2-0.5,2.6-0.7,4.1-0.7
		c1.2,0,2.4,0.1,3.4,0.4c1.1,0.3,2.1,0.7,2.9,1.2c0.9,0.5,1.6,1.2,2.2,1.9c0.6,0.7,1,1.6,1.2,2.5c0.3,1.2,0.3,2.4,0,3.5
		c-0.3,1.1-0.8,2-1.6,2.8c-0.8,0.8-1.8,1.4-3,1.9C172.6,46.4,171.2,46.7,169.7,46.7z M176.5,37.9c-0.2-0.7-0.4-1.3-0.9-1.9
		c-0.4-0.6-1-1.1-1.6-1.6c-0.6-0.5-1.4-0.8-2.2-1.1c-0.9-0.3-1.8-0.4-2.8-0.4c-1.3,0-2.5,0.2-3.5,0.6c-1,0.4-1.8,1-2.4,1.7
		c-0.6,0.7-1,1.5-1.2,2.4c-0.2,0.9-0.2,1.8,0,2.8c0.2,0.7,0.4,1.3,0.9,2c0.4,0.6,0.9,1.1,1.6,1.6c0.6,0.5,1.4,0.8,2.2,1.1
		c0.9,0.3,1.8,0.4,2.8,0.4c1.3,0,2.4-0.2,3.4-0.6c1-0.4,1.8-1,2.4-1.7c0.6-0.7,1-1.5,1.2-2.4C176.8,39.8,176.8,38.8,176.5,37.9z"/>
</g>
<path d="M185.2,46.9h-1.9l0-14.6h5.1c0.8,0,1.6,0.1,2.4,0.2c0.7,0.1,1.4,0.3,2,0.6c0.6,0.3,1.1,0.7,1.5,1.1c0.4,0.4,0.7,1,0.8,1.5
	c0.2,0.7,0.1,1.3,0,1.7c-0.2,0.5-0.5,0.9-0.9,1.2c-0.4,0.3-1,0.6-1.6,0.8c-0.6,0.2-1.3,0.3-2.1,0.4l5.8,6.9h-2.2l-5.5-6.8h-3.3
	L185.2,46.9z M185.2,38.9h3.4c0.6,0,1.3,0,1.9-0.1c0.6-0.1,1.1-0.2,1.6-0.4c0.5-0.2,0.8-0.5,1-0.9c0.2-0.4,0.3-0.9,0.1-1.5
	c-0.2-0.8-0.7-1.4-1.5-1.8c-0.8-0.4-1.9-0.6-3.2-0.6h-3.2L185.2,38.9z"/>
<path d="M202.9,45.6h10.2l0,1.3H201l0-14.6h11.4l0,1.3h-9.5l0,5.1h9l0,1.3h-9L202.9,45.6z"/>
<path class="st0" d="M138,40"/>
<polygon class="st0" points="72.9,15.2 75.2,14.2 76.1,12 77,14.2 79.3,15.1 77,16.1 76.1,18.3 75.1,16.1 "/>
</svg>
